<svg id="a" data-name="Icons" xmlns="http://www.w3.org/2000/svg" width="60.125" height="60.125" viewBox="0 0 60.125 60.125">
  <defs>
    <style>
      .b {
        fill: #52daf2;
      }

      .c {
        fill: none;
        stroke: #000334;
        stroke-width: 1.5px;
      }
    </style>
  </defs>
  <polygon class="b" points="40.32227 19.02441 51.36816 30.09375 54.63184 26.82227 43.58594 15.75293 40.32227 19.02441"/>
  <polygon class="b" points="4.87207 26.82227 8.13574 30.09375 19.18115 19.02441 15.91748 15.75293 4.87207 26.82227"/>
  <path class="c" d="m24.06252,45.57353l.68173.69136,1.46402,1.46713c2.23389,2.23865,4.31898.59172,5.39478-1.26576,2.04644,1.05737,4.33403-.11143,5.14757-1.70541,2.58909,1.28136,4.85619-1.37268,4.67047-2.73055,2.79686-.16481,4.89181-3.10028,2.9723-5.67573"/>
  <path class="c" d="m9.4327,29.85509l1.29696,1.29972c.18642.64052.58228,1.3225,1.02195,1.90773"/>
  <line class="c" x1="21.0625" y1="22.5625" x2="18.91026" y2="20.35736"/>
  <path class="c" d="m40.44021,20.20384c-.85282.72023-1.69805,1.36639-2.04192,1.41965-1.04544.16238-5.73337-2.04386-6.6799-2.27946-.9467-.23568-10.39329,2.77023-11.09451,3.91035-.70123,1.14038,2.08794,3.8341,4.775,3.49158,2.68636-.34261,6.67609-1.77343,7.83843-.60862,1.88475,1.88876,7.38432,7.66899,9.98293,9.9682,2.17873,1.92767,5.89255-4.68274,6.83268-5.72286,0,0,.11861-.08618.31558-.22946"/>
  <line class="c" x1="31.60304" y1="46.46627" x2="27.58677" y2="42.44154"/>
  <line class="c" x1="36.75062" y1="44.76085" x2="30.88201" y2="38.87977"/>
  <line class="c" x1="41.421" y1="42.0303" x2="34.53185" y2="35.12651"/>
  <polygon class="c" points="55.69118 26.82239 51.36796 31.15481 39.26293 19.02404 43.58615 14.69162 55.69118 26.82239"/>
  <line class="c" x1="43.58615" y1="19.02404" x2="45.31544" y2="20.757"/>
  <polygon class="c" points="3.8125 26.82239 8.13572 31.15481 20.24075 19.02404 15.91753 14.69162 3.8125 26.82239"/>
  <line class="c" x1="15.91753" y1="19.02404" x2="14.18824" y2="20.757"/>
  <path class="c" d="m19.83488,46.57198c.67529.67681,1.77019.67681,2.44556,0l1.83417-1.83807c.72362-.72516.5385-1.9112-.30565-2.75715-.84424-.84595-2.02776-1.03146-2.7513-.3063.72353-.72516.5385-1.9112-.30574-2.75715-.84415-.84603-2.02768-1.03146-2.7513-.30639.72362-.72507.5385-1.91112-.30565-2.75715-.84415-.84595-2.02768-1.03146-2.7513-.3063.72362-.72516.5385-1.9112-.30565-2.75715-.84424-.84595-2.02776-1.03146-2.7513-.30639l-1.83417,1.83816c-.67537.67672-.67537,1.77395,0,2.45076l9.78233,9.80314Z"/>
  <line class="c" x1="24.56397" y1="15.5581" x2="22.83468" y2="13.82514"/>
  <line class="c" x1="28.02255" y1="13.82514" x2="27.15791" y2="11.22569"/>
  <line class="c" x1="31.48113" y1="13.82514" x2="32.34577" y2="11.22569"/>
  <line class="c" x1="34.93971" y1="15.5581" x2="36.669" y2="13.82514"/>
</svg>