<?xml version="1.0" encoding="UTF-8"?>
<svg id="a" data-name="Icons" xmlns="http://www.w3.org/2000/svg" width="60.125" height="60.125" viewBox="0 0 60.125 60.125">
  <defs>
    <style>
      .b {
        fill: none;
      }

      .b, .c {
        stroke: #000334;
        stroke-miterlimit: 10;
        stroke-width: 1.5px;
      }

      .d {
        fill: #000334;
      }

      .c {
        fill: #52daf2;
      }
    </style>
  </defs>
  <g>
    <circle class="d" cx="17.3125" cy="14.3125" r="2.25"/>
    <path class="d" d="m19.5625,17.3125h-4.5c-.64565,0-1.21885.41315-1.42302,1.02566l-.82698,3.47434h9l-.82698-3.47434c-.20417-.61251-.77738-1.02566-1.42302-1.02566Z"/>
  </g>
  <g>
    <circle class="d" cx="17.3125" cy="39.8125" r="2.25"/>
    <path class="d" d="m19.5625,42.8125h-4.5c-.64565,0-1.21885.41315-1.42302,1.02566l-.82698,3.47434h9l-.82698-3.47434c-.20417-.61251-.77738-1.02566-1.42302-1.02566Z"/>
  </g>
  <g>
    <circle class="d" cx="42.8125" cy="39.8125" r="2.25"/>
    <path class="d" d="m40.5625,42.8125h4.5c.64565,0,1.21885.41315,1.42302,1.02566l.82698,3.47434h-9s.82698-3.47434.82698-3.47434c.20417-.61251.77738-1.02566,1.42302-1.02566Z"/>
  </g>
  <path class="b" d="m17.3125,27.8125c-5.79899,0-10.5-4.70101-10.5-10.5s4.70101-10.5,10.5-10.5,10.5,4.70101,10.5,10.5v10.5h-10.5Z"/>
  <path class="c" d="m42.8125,27.8125c5.79899,0,10.5-4.70101,10.5-10.5s-4.70101-10.5-10.5-10.5-10.5,4.70101-10.5,10.5v10.5s10.5,0,10.5,0Z"/>
  <path class="b" d="m17.3125,32.3125c-5.79899,0-10.5,4.70101-10.5,10.5s4.70101,10.5,10.5,10.5,10.5-4.70101,10.5-10.5v-10.5h-10.5Z"/>
  <path class="b" d="m42.8125,32.3125c5.79899,0,10.5,4.70101,10.5,10.5s-4.70101,10.5-10.5,10.5-10.5-4.70101-10.5-10.5v-10.5s10.5,0,10.5,0Z"/>
  <line class="b" x1="37.5625" y1="14.3125" x2="47.3125" y2="14.3125"/>
  <line class="b" x1="37.5625" y1="18.0625" x2="47.3125" y2="18.0625"/>
  <line class="b" x1="37.5625" y1="21.8125" x2="43.5625" y2="21.8125"/>
</svg>