<?xml version="1.0" encoding="UTF-8"?>
<svg id="a" data-name="Icons" xmlns="http://www.w3.org/2000/svg" width="60.125" height="60.125" viewBox="0 0 60.125 60.125">
  <defs>
    <style>
      .b {
        fill: none;
      }

      .b, .c {
        stroke: #000334;
        stroke-miterlimit: 10;
        stroke-width: 1.5px;
      }

      .d, .c {
        fill: #52daf2;
      }
    </style>
  </defs>
  <g>
    <ellipse class="b" cx="36.74064" cy="23.37876" rx="16.56874" ry="16.56338"/>
    <path class="c" d="m6.14975,43.14937h19.70851v3.88267H6.14975c-1.06718,0-1.93359-.86641-1.93359-1.93359v-.01549c0-1.06718.86641-1.93359,1.93359-1.93359Z" transform="translate(-27.4762 23.83279) rotate(-44.99072)"/>
    <line class="b" x1="22.68232" y1="37.43253" x2="24.94631" y2="35.17851"/>
  </g>
  <path class="d" d="m26.66515,13.30649c-.29419.29409-.29419.77053,0,1.06462s.77078.29409,1.06497,0c4.96886-4.96627,13.0522-4.96627,18.02106,0,2.40696,2.40569,3.73228,5.60445,3.73228,9.00761,0,.41565.33734.75288.75312.75288s.75312-.33723.75312-.75288c0-3.80509-1.48222-7.38225-4.17357-10.07223-5.55527-5.55446-14.59571-5.55446-20.15099,0Z"/>
</svg>