<?xml version="1.0" encoding="UTF-8"?>
<svg id="a" data-name="Icons" xmlns="http://www.w3.org/2000/svg" width="60.125" height="60.125" viewBox="0 0 60.125 60.125">
  <defs>
    <style>
      .b {
        fill: none;
      }

      .b, .c {
        stroke: #000334;
        stroke-miterlimit: 10;
        stroke-width: 1.5px;
      }

      .d {
        fill: #000334;
      }

      .c {
        fill: #52daf2;
      }
    </style>
  </defs>
  <g>
    <circle class="c" cx="30.06252" cy="15.8125" r="9"/>
    <g>
      <circle class="d" cx="30.06252" cy="12.8125" r="2.25"/>
      <path class="d" d="m32.31252,15.8125h-4.5c-.64565,0-1.21885.41315-1.42302,1.02566l-.82698,3.47434h9l-.82698-3.47434c-.20417-.61251-.77738-1.02566-1.42302-1.02566Z"/>
    </g>
  </g>
  <g>
    <g>
      <circle class="d" cx="15.81252" cy="38.3125" r="2.25"/>
      <path class="d" d="m18.06252,41.3125h-4.5c-.64565,0-1.21885.41315-1.42302,1.02566l-.82698,3.47434h9l-.82698-3.47434c-.20417-.61251-.77738-1.02566-1.42302-1.02566Z"/>
    </g>
    <circle class="b" cx="15.81252" cy="41.3125" r="9"/>
  </g>
  <g>
    <g>
      <circle class="d" cx="44.31252" cy="38.3125" r="2.25"/>
      <path class="d" d="m46.56252,41.3125h-4.5c-.64565,0-1.21885.41315-1.42302,1.02566l-.82698,3.47434h9l-.82698-3.47434c-.20417-.61251-.77738-1.02566-1.42302-1.02566Z"/>
    </g>
    <circle class="b" cx="44.31252" cy="41.3125" r="9"/>
  </g>
  <polyline class="b" points="30.06252 24.81251 30.06252 31.5625 22.56252 36.0625"/>
  <line class="b" x1="30.06252" y1="31.5625" x2="37.56252" y2="36.0625"/>
</svg>